# xmcd CD database file
#
# Track frame offsets:
#	150
#	21925
#	46067
#	67862
#	103165
#	332550
#
# Disc length: 4440 seconds
#
# Revision: 0
# Processed by: cddbd v1.5PL3 Copyright (c) Steve Scherf et al.
# Submitted via: CDex 1.50beta10
#
DISCID=46115606
DTITLE=YeLLOW Generation - うたかた／春雷
DYEAR=2003
DGENRE=JPop
TTITLE0=うたかた
TTITLE1=春雷
TTITLE2=うたかた(less vocal)
TTITLE3=春雷(less vocal)
TTITLE4=DATA
TTITLE5=DATA
EXTD=YEAR: 2003
EXTT0=
EXTT1=
EXTT2=
EXTT3=
EXTT4=
EXTT5=
PLAYORDER=
